<?xml version="1.0" encoding="UTF-8"?>
<!DOCTYPE svg PUBLIC "-//W3C//DTD SVG 1.1//EN" "http://www.w3.org/Graphics/SVG/1.1/DTD/svg11.dtd">
<!-- Creator: CorelDRAW (Versión de evaluación) -->
<svg xmlns="http://www.w3.org/2000/svg" xml:space="preserve" width="50px" height="50px" version="1.1" style="shape-rendering:geometricPrecision; text-rendering:geometricPrecision; image-rendering:optimizeQuality; fill-rule:evenodd; clip-rule:evenodd"
viewBox="0 0 50 50"
 xmlns:xlink="http://www.w3.org/1999/xlink"
 xmlns:xodm="http://www.corel.com/coreldraw/odm/2003">
 <defs>
  <style type="text/css">
   <![CDATA[
    .fil1 {fill:#5C7089}
    .fil2 {fill:#5D6E86}
    .fil0 {fill:#B0C4DC}
   ]]>
  </style>
 </defs>
 <g id="Capa_x0020_1">
  <metadata id="CorelCorpID_0Corel-Layer"/>
  <g id="_700414544">
   <path class="fil0" d="M20.55 10.94l-0.03 0c-0.32,-0.12 -0.51,-0.57 -0.04,-0.85 0.59,-0.35 1.32,-0.01 1.37,0.42 0.07,0.57 -1.05,0.77 -1.3,0.43zm-3.76 11.76c-0.02,-0.23 -0.85,-1.16 -0.77,-2.79 0.05,-1.09 0.64,-2.33 1.5,-3 0.25,-0.2 0.02,-0.08 0.37,-0.28 0.06,-0.03 0.09,-0.06 0.14,-0.09 0.56,-0.36 1.26,-0.65 1.93,-0.79 0.28,-0.05 0.53,-0.05 0.78,-0.1 0.29,-0.06 2.98,0.03 3.52,0.03 0.74,0.01 0.93,0.16 1.57,-0.18 0.21,-0.11 0.36,-0.22 0.51,-0.38 0.4,-0.4 0.83,-1.14 1.06,-1.66 0.04,-0.11 0.05,-0.21 0.11,-0.33 0.04,-0.11 0.07,-0.21 0.12,-0.32 0.16,-0.32 0.43,-0.7 0.16,-0.98 -0.09,-0.1 -0.76,-0.38 -0.93,-0.44 -0.55,-0.2 -2.13,-0.63 -2.63,-0.97 -0.07,-0.52 0.05,-0.61 -0.56,-1.19 -0.57,-0.54 -0.37,-0.32 -0.99,-0.77l-0.79 -0.52c-0.11,-0.06 -0.21,-0.08 -0.3,-0.14 -0.18,-0.12 -0.39,-0.22 -0.57,-0.32 -0.64,-0.35 -0.64,-0.22 -0.36,-0.79 0.54,-1.11 0.82,-1.23 1.36,-2.82 -1.01,0.05 -2.64,0.72 -3.49,1.08 -0.58,0.25 -2.33,1.26 -2.83,1.78 -0.17,0.17 -0.18,0.11 -0.33,0.25 -0.09,0.08 -0.2,0.18 -0.3,0.26 -0.22,0.18 -0.37,0.4 -0.58,0.58l-0.68 0.71c-0.24,0.33 -0.22,0.26 -0.4,0.49 -0.17,0.22 -0.33,0.43 -0.48,0.66l-0.23 0.34c-1.06,1.66 -1.78,3.35 -2.1,5.39 -0.15,0.91 -0.32,2.16 0.04,3.07l0.36 0.79c0.33,0.69 0.92,1.46 1.53,1.92 0.14,0.1 0.18,0.15 0.31,0.26l1.1 0.62c0.74,0.35 1.05,0.4 1.79,0.54 0.21,0.04 0.87,0.11 1.06,0.09z"/>
   <path class="fil1" d="M13.88 37.07c-0.35,-0.34 -0.43,-0.65 -0.61,-0.82 -0.08,-0.09 -0.13,-0.15 -0.23,-0.25 -0.07,-0.08 -0.1,-0.19 -0.18,-0.29 -0.13,-0.17 -0.1,-0.1 -0.24,-0.23 -0.05,-0.05 -0.04,-0.07 -0.11,-0.13 -0.06,-0.05 -0.08,-0.05 -0.13,-0.11l-0.57 -0.59c-0.03,-0.03 -0.1,-0.07 -0.14,-0.1 -0.09,-0.05 -0.07,-0.03 -0.14,-0.09 -0.14,-0.13 -0.28,-0.12 -0.44,-0.25 -0.05,-0.05 -0.08,-0.07 -0.14,-0.1 -0.03,-0.02 -0.05,-0.03 -0.07,-0.05 0,0 -0.01,-0.01 -0.01,-0.01l-0.34 -0.24c-0.09,-0.04 -0.35,-0.34 -0.48,-0.44 -0.06,-0.04 -0.1,-0.05 -0.14,-0.09l-0.46 -0.52c-0.01,-0.01 -0.01,-0.01 -0.02,-0.02 0,0 -0.02,-0.03 -0.02,-0.03 -0.04,-0.04 -0.02,-0.03 -0.07,-0.06 -0.14,-0.09 -0.18,-0.16 -0.3,-0.28l-0.18 -0.18c-0.17,-0.14 -0.79,-0.81 -0.9,-0.98l-0.2 -0.28c-0.19,-0.19 -0.06,-0.06 -0.19,-0.28 -0.06,-0.12 -0.04,-0.06 -0.11,-0.13 -0.12,-0.14 -0.16,-0.33 -0.16,-0.53 0,-0.4 -0.1,-0.81 0.45,-0.74l0.15 0.06c-0.02,0.22 0,0.04 -0.08,0.16 -0.08,0.12 -0.06,0.51 -0.04,0.64 0.01,0.08 0.2,0.39 0.26,0.45 0.14,0.12 0.1,0.1 0.19,0.26 0.04,0.06 0.07,0.09 0.1,0.13l0.39 0.4c0.32,0.25 0.55,0.66 0.65,0.74 0.19,0.15 0.37,0.27 0.51,0.47 0.11,0.16 0.4,0.36 0.49,0.44 0.16,0.14 0.25,0.28 0.46,0.43l0.28 0.2c0.07,0.06 0.03,0.05 0.13,0.1 0.32,0.14 0.08,-0.01 0.27,0.18 0.06,0.05 0.08,0.05 0.15,0.09 0.12,0.08 0.24,0.23 0.39,0.29 0.3,0.13 0.06,-0.02 0.38,0.3l0.49 0.52c0.01,0.01 0.03,0.03 0.03,0.03 0.08,0.09 0.04,0.08 0.16,0.14 0.17,0.08 0.22,0.33 0.37,0.47l0.1 0.08c0.16,0.11 0.1,0.23 0.2,0.36 0.04,0.05 0.09,0.09 0.11,0.13 0.03,0.06 0.03,0.1 0.08,0.16 0.15,0.21 0.39,0.53 -0.09,0.59zm1.86 -3.59c-0.17,-0.03 -0.1,-0.09 -0.31,-0.13 -0.17,-0.03 -0.27,-0.16 -0.42,-0.2 -0.12,-0.04 -0.09,-0.07 -0.2,-0.13 -0.14,-0.07 -0.28,-0.11 -0.39,-0.2 -0.03,-0.03 0.01,-0.01 -0.05,-0.04 -0.22,-0.1 -0.02,0.05 -0.4,-0.2l-0.37 -0.23c-0.44,-0.21 -0.19,-0.09 -0.38,-0.24 -0.11,-0.1 -0.15,-0.04 -0.37,-0.25 -0.13,-0.13 -0.25,-0.17 -0.34,-0.26l-0.33 -0.27c-0.14,-0.11 -0.35,-0.23 -0.44,-0.36 0,-0.01 -0.01,-0.01 -0.01,-0.02 -0.01,0 -0.01,-0.01 -0.02,-0.01l-0.14 -0.15c-0.01,-0.01 -0.01,-0.01 -0.02,-0.02 0,0 -0.01,-0.01 -0.01,-0.01 -0.12,-0.13 -0.12,-0.08 -0.26,-0.16 -0.19,-0.13 -0.38,-0.38 -0.55,-0.49l-0.04 -0.02c-0.1,-0.07 -0.24,-0.12 -0.3,-0.21 -0.12,-0.16 0.01,-0.08 -0.22,-0.19 -0.11,-0.05 -0.16,-0.08 -0.24,-0.15 -0.04,-0.03 -0.07,-0.08 -0.11,-0.1l-0.28 -0.14c-0.1,-0.05 -0.13,-0.11 -0.24,-0.14 -0.21,-0.05 -0.2,-0.1 -0.47,-0.13 -0.22,-0.03 -0.54,-0.02 -0.68,0.08 -0.22,0.15 -0.39,0 -0.7,0.07 0.03,-0.17 0.17,-0.29 0.31,-0.34 0.05,-0.02 0.03,0.01 0.09,-0.03 0.04,-0.02 0.02,-0.01 0.04,-0.04l0.25 -0.17c0.2,-0.03 0.13,-0.03 0.29,-0.09 0.33,-0.14 0.53,0.06 0.66,0.08 0.07,0.01 0.14,0 0.2,0.01 0.11,0.03 0.03,0.03 0.13,0.08 0.21,0.11 0.15,-0.07 0.23,0.15 0.24,0 0.13,0.01 0.26,0.1 0.01,0.01 0.02,0.01 0.02,0.01l0.28 0.18c0.03,0.02 0.04,0.03 0.09,0.05 0.18,0.11 0.35,0.25 0.48,0.41 0.1,0.11 0.19,0.32 0.34,0.31 0.03,-0.05 0.05,-0.07 0.03,-0.15 0,-0.01 -0.02,-0.05 -0.03,-0.08l-0.13 -0.17c-0.08,-0.1 -0.12,-0.33 -0.16,-0.47 -0.03,-0.13 -0.03,-0.04 -0.08,-0.13 -0.09,-0.16 0.01,0.07 -0.03,-0.09 -0.03,-0.14 -0.09,-0.23 -0.13,-0.36 -0.06,-0.16 -0.09,-0.16 -0.12,-0.31 -0.02,-0.14 -0.08,-0.17 -0.1,-0.31 -0.03,-0.16 -0.01,-0.18 -0.15,-0.23 0,-0.25 -0.04,-0.22 -0.12,-0.58 -0.03,-0.17 -0.06,-0.08 -0.1,-0.21 -0.04,-0.11 0,-0.2 -0.04,-0.29 -0.05,-0.09 -0.09,-0.04 -0.1,-0.23 0,-0.05 0.01,-0.14 0,-0.18 -0.03,-0.18 0.01,-0.01 -0.05,-0.11 -0.09,-0.16 -0.01,-0.12 -0.05,-0.27 -0.03,-0.16 -0.08,-0.03 -0.1,-0.22 -0.02,-0.1 0,-0.22 -0.05,-0.29 -0.04,-0.06 -0.03,0.03 -0.07,-0.1 -0.01,-0.06 0,-0.09 0,-0.14 -0.02,-0.19 -0.04,-0.11 -0.09,-0.25 -0.02,-0.08 -0.02,-0.2 -0.05,-0.28 -0.02,-0.08 -0.07,-0.12 -0.09,-0.23 -0.02,-0.13 0.01,-0.16 -0.05,-0.27 -0.08,-0.14 -0.07,-0.07 -0.08,-0.25 -0.02,-0.21 0.02,-0.1 -0.11,-0.21 -0.01,-0.11 -0.01,-0.22 -0.04,-0.3 -0.05,-0.14 -0.07,-0.04 -0.09,-0.21 -0.04,-0.34 -0.05,-0.17 -0.1,-0.52 -0.03,-0.16 -0.06,-0.12 -0.09,-0.23 -0.05,-0.16 0.03,-0.09 -0.08,-0.23 -0.06,-0.08 -0.04,-0.12 -0.07,-0.22 -0.06,-0.18 -0.1,-0.02 -0.11,-0.22 -0.08,-0.13 -0.11,-0.13 -0.18,-0.27 -0.03,-0.07 -0.03,-0.11 -0.06,-0.18 -0.03,-0.1 -0.13,-0.2 -0.22,-0.28 -0.12,-0.12 -0.11,-0.17 -0.25,-0.23 -0.13,-0.06 -0.04,-0.01 -0.12,-0.14 -0.21,-0.02 -0.39,-0.02 -0.59,-0.04 -0.12,-0.01 -0.17,-0.04 -0.29,-0.02 -0.35,0.07 -0.33,0.15 -0.28,0.62 0.01,0.17 0.05,0.07 0.08,0.21 0.03,0.14 -0.03,0.14 0.06,0.27 0.08,0.11 0.08,0.04 0.1,0.2 0.02,0.23 0.02,0.11 0.07,0.26 0.02,0.08 0.02,0.21 0.04,0.29 0.02,0.12 0.05,0.14 0.08,0.24 0.02,0.09 0,0.2 0.02,0.28 0.05,0.14 0.1,0.01 0.12,0.21 0.01,0.19 -0.05,0.12 0.05,0.27 0.08,0.12 0.06,0.11 0.06,0.27 0.01,0.22 0.01,0.1 0.07,0.23 0.03,0.08 0.03,0.18 0.06,0.27 0.04,0.16 0.08,0.12 0.1,0.22 0.02,0.07 0.01,0.25 0.01,0.33 0.22,0.15 0.06,0.2 0.14,0.42 0.02,0.08 0.07,0.09 0.09,0.2 0.02,0.1 0,0.21 0.01,0.29 0.05,0.2 0.11,-0.03 0.12,0.48 0,0.24 0.11,0.22 0.12,0.47 0,0.42 0.07,0.29 0.09,0.51 0.02,0.35 0.1,0.23 0.11,0.48 0.02,0.3 0.08,0.23 0.11,0.48 0.02,0.11 0,0.17 0.04,0.26 0.05,0.1 0.11,0.06 0.07,0.19 -0.01,0 -0.08,0.03 -0.14,0.01 -0.1,-0.05 -0.14,-0.26 -0.26,-0.4l-0.1 -0.14c-0.05,-0.12 -0.08,-0.15 -0.15,-0.24 -0.16,-0.2 -0.28,-0.43 -0.46,-0.6 -0.21,-0.19 -0.21,-0.33 -0.29,-0.46 -0.04,-0.06 -0.11,-0.07 -0.16,-0.19 -0.08,-0.18 -0.23,-0.3 -0.3,-0.45l-0.46 -0.64c-0.1,-0.14 -0.03,-0.15 -0.15,-0.27l-0.06 -0.08c-0.23,-0.25 -0.13,-0.2 -0.32,-0.41 -0.01,-0.02 -0.04,-0.06 -0.07,-0.1 -0.06,-0.07 -0.09,-0.16 -0.17,-0.22l-0.35 -0.54c-0.19,-0.28 -0.32,-0.46 -0.61,-0.67 -0.13,-0.1 -0.03,-0.1 -0.16,-0.2 -0.09,-0.06 -0.14,-0.11 -0.26,-0.12 -0.32,-0.04 -0.17,-0.09 -0.65,-0.09 -0.19,0 -0.57,-0.05 -0.71,0.02 -0.06,0.03 -0.19,0.21 -0.19,0.27 0.04,0.1 0.04,0.05 0.06,0.09 0.04,0.08 0.04,0.15 0.1,0.21 0.08,0.08 0.03,-0.02 0.08,0.1 0.2,0.53 0.24,0.36 0.43,0.81l0.31 0.62c0.05,0.1 0.03,0.13 0.11,0.21l0.64 1.26c0.04,0.07 0.06,0.09 0.1,0.2l0.35 0.61c0.03,0.04 0.02,0.05 0.05,0.1 0.04,0.07 0.02,0.01 0.06,0.09 0.04,0.09 0.04,0.15 0.1,0.22l0.32 0.61c0,0.01 0.08,0.24 0.08,0.24 0.05,0.09 0.07,0.06 0.1,0.11l0.08 0.15c0.08,0.08 0.12,0.2 0.17,0.32l0.3 0.58c0.04,0.05 0,-0.01 0.04,0.06l0.2 0.42c0.06,0.19 0.01,0.07 0.12,0.21l0.16 0.31c0.04,0.09 0.13,0.16 0.19,0.26 0.05,0.1 0.03,0.12 0.1,0.2 0.17,0.19 0.2,0.4 0.36,0.59 0.1,0.12 0.25,0.5 0.33,0.59 0.09,0.08 0.11,0.18 0.19,0.29 0.05,0.07 0.06,0.06 0.08,0.09 0.07,0.11 0,0.09 0.12,0.21 0.1,0.1 0.26,0.51 0.33,0.59 0.04,0.05 0.1,0.13 0.13,0.2l0.06 0.12c0,0 0.01,0.01 0.01,0.02l0.4 0.64c0.08,0.19 -0.04,0.04 0.12,0.18 0.05,0.05 0.1,0.13 0.13,0.2 0,0.01 0.01,0.04 0.01,0.04l0.13 0.26c0.06,0.1 0.03,0.03 0.09,0.09 0.07,0.09 0.04,0.09 0.1,0.2 0.16,0.32 0.45,0.65 0.68,0.93l0.46 0.45c0.09,0.08 0.08,0.1 0.19,0.14 0.2,0.07 0.15,0.14 0.3,0.24 0.05,0.03 0.01,0 0.06,0.03l0.35 0.27c0.08,0.05 0.13,0.06 0.2,0.11l0.89 0.65c0,0.01 0.01,0.01 0.01,0.01 0.01,0.01 0.01,0.01 0.02,0.02 0.18,0.12 0.1,0.01 0.38,0.25 0.13,0.11 0.27,0.17 0.39,0.28 0.16,0.15 0.2,0.11 0.35,0.22l0.35 0.28c0.19,0.2 0.13,0.13 0.39,0.23 0.09,0.04 0.14,0.15 0.24,0.21 0.29,0.16 0.32,0.29 0.45,0.35 0.2,0.1 0.38,0.26 0.57,0.38l0.29 0.19c0.08,0.06 0.01,0.01 0.1,0.06 0.17,0.09 0.03,0.07 0.16,0.15l0.19 0.11c0.06,0.05 0.11,0.1 0.17,0.16 0.12,0.11 0.25,0.14 0.37,0.25 0.03,0.03 0.05,0.05 0.08,0.07l0.24 0.24c0.1,0.09 0.23,0.19 0.32,0.3 0.1,0.11 0.22,0.2 0.31,0.32l0.71 1.01c0.05,0.11 0.12,0.16 0.19,0.29l0.16 0.5c0.04,0.28 0.09,0.15 0.11,0.52 0.01,0.25 0.18,0.41 0.13,0.78 -0.03,0.22 0,0.38 0.01,0.59 0.01,0.15 -0.07,0.43 -0.02,0.56 0.12,0.13 0.38,0.06 0.59,0.06 0.79,0 4.98,0.04 5.08,-0.03 0.13,-0.1 0.06,-0.44 0.06,-0.6 0,-0.21 -0.02,-0.41 0,-0.6 0.01,-0.18 0.02,-0.46 0,-0.64 -0.04,-0.4 0.02,-0.88 0,-1.29 -0.01,-0.25 -0.08,-0.16 -0.12,-0.56 -0.04,-0.52 -0.05,-0.3 -0.09,-0.55 -0.04,-0.22 0.01,-0.11 -0.09,-0.25 -0.07,-0.11 -0.05,-0.14 -0.05,-0.3 -0.1,-0.11 -0.09,-0.03 -0.12,-0.21 -0.02,-0.15 -0.11,-0.34 -0.19,-0.46l-0.08 -0.25c-0.05,-0.09 -0.01,0.03 -0.06,-0.09 -0.05,-0.1 -0.03,-0.13 -0.1,-0.22 -0.03,-0.04 -0.01,0 -0.04,-0.06l-0.14 -0.28c-0.05,-0.15 -0.06,-0.04 -0.08,-0.27 -0.22,-0.11 -0.15,-0.22 -0.37,-0.5 -0.15,-0.21 -0.31,-0.41 -0.43,-0.63 -0.21,-0.37 -0.31,-0.38 -0.46,-0.65 -0.06,-0.1 0.01,-0.02 -0.08,-0.12 -0.01,0 -0.02,-0.01 -0.02,-0.01l-0.29 -0.34c-0.09,-0.13 -0.14,-0.12 -0.23,-0.22 -0.12,-0.13 -0.25,-0.36 -0.41,-0.48 -0.04,-0.03 -0.07,-0.03 -0.12,-0.08 -0.08,-0.09 -0.03,-0.08 -0.09,-0.12 -0.09,-0.08 -0.13,-0.04 -0.27,-0.18l-0.26 -0.19c-0.08,-0.06 -0.16,-0.14 -0.25,-0.19 -0.38,-0.19 -0.19,-0.12 -0.37,-0.25l-2.22 -1.27c-0.12,-0.09 -0.34,-0.11 -0.49,-0.19l-0.28 -0.16c-0.03,-0.02 -0.04,-0.02 -0.06,-0.03l-0.51 -0.27c-0.05,-0.01 -0.11,-0.03 -0.15,-0.05 -0.15,-0.06 -0.06,-0.03 -0.15,-0.1 -0.12,-0.09 -0.18,-0.03 -0.26,-0.16z"/>
   <path class="fil1" d="M42.09 29.28c0.03,-0.09 -0.01,-0.06 0.08,-0.11 0.07,-0.03 0.39,-0.01 0.44,0.01 0.26,0.07 0.17,0.04 0.49,0.04l0 0.43c-0.01,-0.05 0.06,0.02 -0.03,-0.04 -0.01,0 -0.06,-0.02 -0.07,-0.02 -0.3,-0.05 -0.13,0.31 -0.19,0.48l-0.1 0.1c-0.01,0.04 -0.03,0.1 -0.04,0.14 -0.04,0.07 0,-0.01 -0.04,0.06l-0.02 0.03c-0.07,0.14 -0.12,0.13 -0.19,0.28 -0.02,0.04 -0.05,0.12 -0.07,0.15 -0.05,0.08 -0.13,0.12 -0.2,0.22 -0.26,0.37 -0.56,0.7 -0.87,1.02l-0.24 0.24c-0.01,0 -0.02,0.01 -0.02,0.01l-0.16 0.16c-0.12,0.14 -0.19,0.15 -0.27,0.24l-0.36 0.36c-0.21,0.2 0.12,0 -0.44,0.45 -0.13,0.1 -0.12,0.12 -0.23,0.22 -0.13,0.13 -0.11,0.03 -0.26,0.15 -0.1,0.08 -0.12,0.14 -0.22,0.2l-0.24 0.17c-0.16,0.1 -0.14,0.02 -0.41,0.23 -0.04,0.03 -0.08,0.05 -0.12,0.08 -0.18,0.11 -0.28,0.27 -0.42,0.41 -0.05,0.05 -0.06,0.05 -0.11,0.1 -0.16,0.12 -0.27,0.31 -0.44,0.42l-0.28 0.35c-0.12,0.22 -0.29,0.3 -0.4,0.46l-0.15 0.27c-0.04,0.08 -0.1,0.18 -0.16,0.25 -0.07,0.08 -0.16,0.17 -0.22,0.23 -0.46,-0.06 -0.25,-0.37 -0.08,-0.59 0.04,-0.06 0.04,-0.11 0.07,-0.16 0.11,-0.18 0.12,-0.08 0.17,-0.31 0.02,-0.06 0.04,-0.1 0.07,-0.13l0.34 -0.35c0.08,-0.14 0.05,-0.18 0.2,-0.25 0.13,-0.07 0.06,-0.01 0.13,-0.1 0.01,-0.01 0.01,-0.01 0.01,-0.02 0.01,0 0.01,-0.01 0.02,-0.02l0.44 -0.47c0.01,-0.01 0.01,-0.01 0.02,-0.02l0.27 -0.29c0.08,-0.07 0.2,-0.07 0.32,-0.16 0.07,-0.06 0.05,-0.05 0.11,-0.1 0.1,-0.08 0.2,-0.11 0.28,-0.19 0.08,-0.08 0.01,-0.07 0.11,-0.13 0.26,-0.14 0.11,-0.02 0.43,-0.26l0.15 -0.09c0.2,-0.14 0.28,-0.28 0.45,-0.43 0.09,-0.08 0.38,-0.28 0.49,-0.44 0.13,-0.19 0.33,-0.32 0.51,-0.47 0.01,0 0.01,-0.01 0.02,-0.01 0.04,-0.03 0.03,-0.01 0.06,-0.06 0.11,-0.16 0.06,-0.16 0.31,-0.4 0.12,-0.11 0.05,-0.13 0.21,-0.24l0.22 -0.22c0.09,-0.12 0.25,-0.21 0.33,-0.36 0.09,-0.17 0.06,-0.13 0.19,-0.25 0.01,-0.01 0.11,-0.14 0.11,-0.14l0.07 -0.16c0.07,-0.1 0.06,0 0.07,-0.16 0.01,-0.17 0.05,-0.5 -0.05,-0.64 -0.08,-0.1 -0.03,0.06 -0.09,-0.17zm-0.81 -7.26c-0.01,0.25 -0.08,0.24 -0.11,0.43 -0.01,0.08 0,0.1 -0.02,0.19 -0.05,0.2 -0.05,0.05 -0.08,0.33 -0.02,0.22 -0.07,0 -0.13,0.51 -0.13,0.11 -0.09,0 -0.11,0.21 -0.01,0.18 0,0.11 -0.07,0.25 -0.07,0.11 -0.03,0.14 -0.06,0.27 -0.02,0.09 -0.07,0.16 -0.09,0.23 -0.03,0.09 -0.02,0.19 -0.05,0.28 -0.05,0.14 -0.07,0.06 -0.08,0.25 -0.01,0.05 0,0.08 -0.01,0.14 -0.04,0.15 -0.09,0.05 -0.11,0.21 -0.01,0.06 0,0.13 0,0.18 -0.03,0.16 -0.09,0.07 -0.11,0.22 -0.04,0.16 0.04,0.1 -0.05,0.27 -0.06,0.1 -0.02,-0.07 -0.05,0.11 -0.01,0.04 0,0.13 0,0.18 -0.01,0.21 -0.05,0.13 -0.1,0.23 -0.04,0.09 0,0.18 -0.04,0.29 -0.04,0.13 -0.07,0.03 -0.1,0.21 -0.07,0.33 -0.12,0.33 -0.12,0.58 -0.14,0.05 -0.12,0.07 -0.15,0.23 -0.02,0.14 -0.07,0.17 -0.1,0.31l-0.17 0.46c-0.1,0.18 -0.07,0.24 -0.11,0.3 -0.05,0.09 -0.05,0 -0.08,0.13 -0.11,0.36 -0.04,0.31 -0.25,0.59 -0.13,0.18 -0.07,0.42 0.13,0.19l0.17 -0.22c0.03,-0.04 -0.01,0 0.04,-0.05 0.03,-0.03 0.05,-0.04 0.09,-0.08 0.14,-0.14 0.28,-0.23 0.45,-0.33l0.23 -0.16c0.14,-0.08 0.09,-0.13 0.32,-0.13 0.08,-0.22 0.02,-0.04 0.23,-0.15 0.1,-0.05 0.01,-0.05 0.13,-0.08 0.07,-0.01 0.13,0 0.2,-0.01 0.13,-0.02 0.33,-0.22 0.66,-0.08 0.1,0.04 0.04,0.03 0.11,0.06 0.14,0.06 0.25,0.02 0.37,0.13 0.01,0.01 0.01,0.01 0.02,0.02l0.08 0.09c0.06,0.04 0.04,0.01 0.1,0.03 0.12,0.04 0.27,0.16 0.3,0.32 -0.25,0 -0.53,0.07 -0.7,-0.05 -0.18,-0.12 -0.77,-0.14 -1,-0.01 -0.09,0.05 -0.19,0.05 -0.28,0.13 -0.16,0.14 -0.34,0.17 -0.5,0.31 -0.08,0.07 -0.14,0.11 -0.23,0.15 -0.24,0.11 -0.11,0.02 -0.23,0.19 -0.06,0.09 -0.14,0.08 -0.24,0.15l-0.11 0.09c-0.18,0.13 -0.36,0.36 -0.54,0.48 -0.14,0.09 -0.14,0.03 -0.26,0.16l-0.04 0.04c-0.02,0.03 -0.04,0.04 -0.06,0.06 -0.02,0.02 -0.03,0.03 -0.04,0.05 -0.01,0 -0.02,0.01 -0.02,0.01l-0.04 0.05c-0.13,0.18 -0.54,0.38 -0.74,0.6 0,0.01 -0.01,0.01 -0.01,0.02 -0.1,0.1 -0.24,0.15 -0.36,0.27 -0.22,0.2 -0.26,0.15 -0.37,0.25 -0.2,0.15 0.06,0.03 -0.38,0.24 -0.21,0.1 -0.46,0.32 -0.6,0.39 -0.12,0.05 -0.12,0.01 -0.25,0.1 0,0.01 -0.01,0.01 -0.01,0.02 -0.01,0 -0.02,0.01 -0.02,0.01l-0.24 0.12c-0.01,0 -0.02,0 -0.02,0.01l-0.18 0.12c-0.08,0.05 -0.15,0.04 -0.23,0.09 -0.11,0.07 -0.16,0.12 -0.28,0.14 -0.21,0.04 -0.14,0.1 -0.32,0.13 -0.03,0.12 -0.15,0.09 -0.24,0.15 -0.12,0.08 0.08,0.01 -0.29,0.15 -0.05,0.02 -0.1,0.04 -0.15,0.06l-0.19 0.1c-0.08,0.04 -0.05,0.02 -0.08,0.05l-0.05 0.03c-0.2,0.13 -0.45,0.27 -0.67,0.34 -0.14,0.05 -0.12,0 -0.23,0.1l-0.07 0.05c-0.09,0.05 -0.23,0.11 -0.3,0.15 -0.13,0.08 0.06,0 -0.19,0.11l-0.66 0.35c-0.02,0.01 -0.33,0.23 -0.54,0.32l-0.53 0.36c-0.12,0.12 -0.15,0.1 -0.29,0.16 -0.09,0.05 -0.16,0.12 -0.24,0.18l-0.15 0.11c-0.01,0 -0.03,0.02 -0.04,0.02 -0.11,0.08 -0.11,0.12 -0.17,0.16 -0.1,0.08 -0.07,0.03 -0.14,0.06 -0.15,0.08 0.01,0.06 -0.23,0.22 -0.09,0.06 -0.14,0.13 -0.21,0.21 -0.09,0.09 -0.11,0.13 -0.2,0.25 -0.06,0.09 -0.15,0.11 -0.22,0.22 -0.09,0.13 -0.06,0.12 -0.2,0.25 -0.05,0.04 -0.06,0.05 -0.1,0.1 -0.21,0.21 -0.08,0.18 -0.28,0.38l-0.63 0.89c-0.11,0.19 -0.21,0.27 -0.27,0.41 -0.1,0.21 -0.02,0.15 -0.2,0.24 -0.02,0.31 -0.23,0.53 -0.31,0.68 -0.06,0.12 0.03,0.04 -0.1,0.23 -0.1,0.14 0,0.11 -0.08,0.25l-0.15 0.32c-0.05,0.09 -0.03,0 -0.05,0.13 -0.04,0.25 0.01,0.09 -0.12,0.24 0,0.12 0.02,0.19 -0.04,0.29 -0.09,0.14 -0.05,-0.01 -0.09,0.23 -0.03,0.17 -0.06,0.13 -0.08,0.25 -0.02,0.14 -0.01,0.5 -0.05,0.6 -0.15,0.33 -0.1,0.44 -0.09,0.92 0.01,0.46 -0.03,2.35 0.03,2.5 0.16,0.06 4.25,0.03 5.08,0.03 0.83,0 0.61,0.1 0.6,-0.57 -0.01,-0.18 0.04,-0.37 0.02,-0.59 -0.04,-0.44 0.04,-0.49 0.11,-0.73 0.03,-0.1 0,-0.2 0.02,-0.31 0.02,-0.13 0.05,-0.07 0.09,-0.21 0.02,-0.09 0.01,-0.17 0.05,-0.24 0.15,-0.31 -0.03,-0.21 0.25,-0.53 0.04,-0.05 0.02,-0.03 0.05,-0.1l0.07 -0.13c0.08,-0.1 0.03,-0.07 0.08,-0.16l0.2 -0.25c0.04,-0.1 0.06,-0.1 0.12,-0.21 0.11,-0.21 0.1,-0.08 0.22,-0.23 0.17,-0.23 0.43,-0.48 0.66,-0.67 0.12,-0.09 0.04,-0.07 0.18,-0.14 0.02,-0.11 0.14,-0.18 0.23,-0.25 0.1,-0.08 0.08,-0.04 0.16,-0.08 0.16,-0.07 0.27,-0.26 0.44,-0.34 0.17,-0.09 0.03,-0.02 0.14,-0.12 0.11,-0.12 0.61,-0.38 0.77,-0.51 0.01,0 0.01,-0.01 0.02,-0.02 0,0 0.01,0 0.01,-0.01l0.28 -0.17c0.07,-0.05 0.01,0 0.06,-0.06 0.1,-0.13 0.24,-0.2 0.37,-0.28 0.12,-0.07 0.05,-0.06 0.13,-0.14 0.08,-0.07 0.2,-0.06 0.34,-0.16l0.08 -0.07c0.01,-0.01 0.01,-0.01 0.02,-0.02 0.07,-0.08 0.16,-0.12 0.25,-0.19 0.28,-0.24 0.32,-0.19 0.45,-0.32 0.04,-0.03 0.05,-0.05 0.08,-0.07 0.09,-0.08 0.05,-0.04 0.16,-0.11l0.28 -0.23c0.13,-0.11 0.23,-0.1 0.34,-0.19l0.29 -0.22c0.11,-0.07 0.09,-0.09 0.18,-0.15l0.26 -0.18c0.13,-0.1 0.18,-0.1 0.32,-0.19l0.41 -0.3c0.01,-0.01 0.03,-0.02 0.04,-0.02 0.14,-0.1 0.01,-0.13 0.28,-0.22l0.42 -0.36c0.06,-0.05 0.1,-0.08 0.14,-0.13 0.03,-0.04 0.02,-0.03 0.05,-0.07 0.24,-0.32 0.51,-0.6 0.7,-0.96 0.05,-0.08 0.04,-0.12 0.09,-0.18 0.09,-0.11 0.04,0.03 0.11,-0.16l0.26 -0.45c0.01,0 0.03,-0.02 0.04,-0.02 0.06,-0.06 0.01,0 0.05,-0.07l0.08 -0.18c0.06,-0.09 0.07,-0.18 0.13,-0.26l0.68 -1.11c0.08,-0.16 0.11,-0.1 0.16,-0.23 0.05,-0.15 -0.05,0.09 0.01,-0.05 0.04,-0.09 0.07,-0.06 0.14,-0.21 0.03,-0.06 0.05,-0.12 0.09,-0.16 0.08,-0.1 0.06,0 0.12,-0.14 0.04,-0.08 0.01,-0.07 0.07,-0.17l0.19 -0.32c0.05,-0.06 0.01,0 0.05,-0.06 0.07,-0.11 0.1,-0.13 0.15,-0.27 0.03,-0.09 0.03,-0.1 0.09,-0.18 0.06,-0.08 0.07,-0.07 0.11,-0.12 0.06,-0.1 0.1,-0.21 0.19,-0.32 0.06,-0.07 0.15,-0.3 0.29,-0.48 0.08,-0.09 0.11,-0.28 0.15,-0.39l0.12 -0.2c0.01,-0.01 0.01,-0.02 0.01,-0.02 0.13,-0.18 0.41,-0.84 0.46,-0.89 0,0 0.01,-0.01 0.01,-0.01 0.05,-0.05 0.02,-0.01 0.04,-0.05 0.01,0 0.01,-0.01 0.02,-0.02l0.02 -0.06c0.1,-0.2 0.06,0.04 0.22,-0.44l0.12 -0.23c0,-0.01 0.01,-0.04 0.01,-0.05 0.03,-0.09 0.05,-0.07 0.09,-0.15l0.03 -0.06c0.05,-0.09 0.07,-0.06 0.11,-0.16 0.05,-0.14 -0.01,-0.05 0.08,-0.19 0.05,-0.07 0.04,-0.09 0.09,-0.17 0.09,-0.13 0.02,0 0.08,-0.16 0.05,-0.13 0.08,-0.14 0.21,-0.33 0.03,-0.05 0.04,-0.12 0.08,-0.19 0.12,-0.2 0.18,-0.52 0.33,-0.7l0.28 -0.47c0.02,-0.05 0.01,-0.05 0.03,-0.09 0.06,-0.14 0.05,0.01 0.15,-0.24 0.02,-0.08 -0.01,-0.01 0.03,-0.08l0.31 -0.62c0.03,-0.07 0.05,-0.07 0.09,-0.17 0.05,-0.1 0.04,-0.09 0.1,-0.17 0,-0.01 0.02,-0.03 0.02,-0.04l0.25 -0.47c0.1,-0.14 -0.01,0.07 0.13,-0.23 0.06,-0.14 0.09,-0.09 -0.01,-0.24 -0.06,-0.11 0,-0.08 -0.11,-0.14 -0.12,-0.06 -0.81,-0.04 -1,-0.02 -0.12,0.01 -0.12,0.03 -0.21,0.06 -0.1,0.04 -0.24,0.04 -0.32,0.09l-0.07 0.05c-0.15,0.1 -0.03,0.02 -0.12,0.15 -0.08,0.09 -0.18,0.09 -0.28,0.23 -0.03,0.04 -0.02,0.04 -0.05,0.07l-0.35 0.45c-0.16,0.21 -0.17,0.31 -0.25,0.43 -0.08,0.11 -0.12,0.1 -0.19,0.23l-0.11 0.13c-0.09,0.12 -0.08,0.06 -0.16,0.22 -0.11,0.24 -0.27,0.24 -0.34,0.47 -0.02,0.08 0,0.03 -0.03,0.09 -0.11,0.21 -0.36,0.42 -0.49,0.69 -0.07,0.14 -0.05,0.07 -0.13,0.15 -0.11,0.12 -0.19,0.43 -0.35,0.43 -0.01,0.26 -0.02,0.15 -0.11,0.29 -0.15,0.25 -0.13,0.15 -0.37,0.47l-0.17 0.25c-0.18,0.23 -0.09,0.05 -0.24,0.35 0,0 -0.08,0.11 -0.09,0.12l-0.09 0.12c-0.06,0.14 -0.11,0.35 -0.31,0.27 -0.06,-0.19 0.07,0.02 0.1,-0.37 0.02,-0.29 0.08,-0.29 0.11,-0.39 0.05,-0.24 -0.04,-0.17 0.09,-0.42 0.08,-0.15 0,-0.23 0.05,-0.34 0.05,-0.12 -0.02,-0.03 0.08,-0.08 -0.02,-0.18 -0.03,-0.42 0.05,-0.56 0.1,-0.18 0.05,-0.32 0.06,-0.57 0.28,-0.23 -0.02,-0.12 0.21,-0.59 0.07,-0.15 0,-0.21 0.04,-0.34 0.06,-0.17 0.11,0.02 0.11,-0.31 0,-0.28 0.02,-0.12 0.1,-0.29 0.04,-0.1 0.03,-0.24 0.07,-0.34 0.13,-0.26 0.04,-0.1 0.07,-0.35 0.02,-0.2 0.1,-0.09 0.12,-0.3 0,-0.06 -0.01,-0.12 0,-0.17 0.02,-0.08 0.05,-0.07 0.09,-0.12 0.05,-0.1 0.01,-0.23 0.06,-0.36l0.17 -0.66c0.04,-0.26 -0.03,-0.1 0.1,-0.29 0.1,-0.15 0,-0.17 0.08,-0.33 0.06,-0.11 0.04,0.04 0.06,-0.15 0.01,-0.07 0.01,-0.12 0.02,-0.2 0.04,-0.35 -0.06,-0.35 -0.27,-0.41 -0.14,-0.03 -0.17,0 -0.29,0.01 -0.21,0.02 -0.4,0.02 -0.61,0.04 -0.23,0.35 0.05,-0.13 -0.29,0.28 -0.14,0.16 -0.26,0.22 -0.33,0.44 -0.07,0.23 -0.31,0.5 -0.34,0.65 -0.02,0.13 -0.01,0.18 -0.12,0.2z"/>
   <path class="fil0" d="M29.73 6.6c0.38,-0.1 0.69,0.05 0.86,0.26 0.23,0.29 -0.11,0.59 -0.38,0.65 -0.85,0.18 -1.34,-0.7 -0.48,-0.91zm-1.84 4.14c0.5,0.09 1.02,0.09 1.52,0.04 0.82,-0.07 0.92,-0.26 1.27,-0.34 -0.22,0.29 -1.18,0.83 -1.57,0.96 -0.54,0.17 -0.45,0.08 -0.71,0.13 -0.06,0.14 0.1,0.4 0.16,0.57 0.01,0.21 0.11,0.67 0.13,0.94 0.05,0.48 -0.03,0.61 -0.1,1.02 -0.05,0.25 0.61,0.73 0.78,0.89 0.08,0.09 0.2,0.22 0.31,0.26 0.24,-0.08 0.51,-0.43 0.78,-0.46 0.07,-0.07 0.08,-0.04 0.24,-0.09 1.34,-0.49 1.89,0.06 2.15,-0.23 -0.04,-0.17 -0.84,-0.58 -0.57,-2.09 0.05,-0.27 0.05,-0.48 0.19,-0.71 0.01,-0.01 0.01,-0.01 0.02,-0.02 0,0 0.01,-0.01 0.01,-0.02 0.02,0.81 0.43,1.44 0.84,2.04 0.07,0.11 0.38,0.35 0.47,0.49 0.08,0.02 0.09,0.04 0.18,0.11 0.24,0.17 0.3,0.29 0.59,0.36 0.52,0.13 0.58,0.03 0.67,-0.47 0.17,-1.07 -0.39,-1.76 -0.41,-2.05 -0.15,-0.1 -0.52,-0.96 -0.94,-1.3 -0.12,-0.1 -0.27,-0.23 -0.36,-0.35l0.71 0.37c0.11,0.05 0.87,0.6 0.99,0.77l0.1 0.09c0.38,0.38 0.39,0.35 0.84,0.84l0.43 0.49c0.41,0.49 1.29,1.71 1.54,2.23 0.11,0.23 0.21,0.44 0.36,0.6 -0.02,-0.3 -0.11,-0.75 -0.18,-1.04 -0.07,-0.3 -0.14,-0.72 -0.23,-0.99 -0.22,-0.65 -0.41,-1.19 -0.68,-1.79 -0.07,-0.16 -0.14,-0.24 -0.19,-0.41 -0.05,-0.14 -0.13,-0.29 -0.2,-0.42 -0.35,-0.66 -1,-1.66 -1.48,-2.24l-0.56 -0.66c-0.1,-0.11 -0.2,-0.23 -0.3,-0.33l-0.62 -0.59c-0.32,-0.3 -0.51,-0.41 -0.69,-0.56 -0.48,-0.43 -0.68,-0.5 -1.05,-0.8 -0.09,-0.08 -0.27,-0.16 -0.39,-0.24l-2.05 -1.04c-1.22,-0.5 -2.42,-0.83 -3.92,-0.99 -0.29,-0.03 -0.89,-0.09 -1.16,-0.03 -0.22,0.05 -0.7,0.28 -0.83,0.42 -0.12,0.12 -0.19,0.19 -0.29,0.31 -0.11,0.13 -0.14,0.22 -0.23,0.39 -0.28,0.54 -0.59,1.35 -0.17,1.92 0.28,0.38 0.73,0.52 1.11,0.74 0.09,0.05 0.3,0.18 0.38,0.24 0.46,0.38 0.85,0.82 1.16,1.3 0.5,0.77 0.68,1.14 1.52,1.58 0.15,0.08 0.32,0.11 0.43,0.16z"/>
   <path class="fil0" d="M33.04 19.99c0.28,-0.08 0.55,0.08 0.61,0.3 0.07,0.26 -0.19,0.45 -0.38,0.51 -0.66,0.17 -0.94,-0.61 -0.23,-0.81zm2.23 -3.35c-0.02,0.27 -0.18,0.56 -0.24,0.82l-0.74 0.17 -1.18 0.52 -0.68 0.58 -0.54 0.69c-0.05,0.07 -0.27,0.43 -0.32,0.48 -0.02,0.12 -0.23,0.51 -0.29,0.6 -0.44,0.55 -1.22,0.89 -1.46,1.28 -0.18,0.29 -0.15,0.42 -0.02,0.68 0.07,0.15 0.09,0.51 0.18,0.74 0.11,0.27 0.21,0.33 0.36,0.54 0.38,0.49 0.87,0.55 1.53,0.73 0.16,0.04 0.27,0.03 0.41,0.07 0.74,0.18 1.76,0.8 2.22,1.4 0.19,0.24 0.38,0.56 0.5,0.85l0.1 0.25c0.06,0.09 0.01,0.03 0.06,0.07 0.14,-0.21 0.32,-0.45 0.49,-0.63 0.32,-0.32 1.1,-1.61 1.35,-2.04 0.06,-0.1 0.15,-0.28 0.2,-0.37 0.23,-0.52 0.64,-1.5 0.8,-2.02 0.05,-0.14 0.09,-0.29 0.14,-0.43 0.04,-0.14 0.06,-0.31 0.1,-0.47 0.19,-0.79 0.28,-1.08 0.17,-1.94 -0.16,-1.32 -0.27,-1.99 -0.91,-3.05l-0.34 -0.49c-0.23,-0.24 -0.82,-0.89 -1.2,-0.81 -0.12,0.19 -0.26,0.65 -0.36,0.89 -0.06,0.15 -0.27,0.82 -0.33,0.89z"/>
   <path class="fil0" d="M30.39 16.24c0.46,-0.21 0.81,0.4 0.29,0.6 -0.44,0.18 -0.85,-0.34 -0.29,-0.6zm0.02 3.14l0.16 -0.16c0.63,-0.53 1.09,-0.85 1.8,-1.29 0.22,-0.13 0.55,-0.23 0.8,-0.32 0,0 1.25,-1.73 0.72,-1.95 -0.54,-0.22 -2.16,-0.14 -2.73,-0.08 -0.87,0.1 -0.86,0.09 -1.6,0.39 -0.08,-0.06 -0.29,-0.54 -1.02,-0.76 -0.57,-0.17 -1,-0.02 -1.4,0.29 -0.57,0.44 -0.72,1.24 -0.39,1.95 0.11,0.23 0.28,0.37 0.39,0.53 -0.13,0.13 -0.3,0.23 -0.45,0.34 -0.56,0.42 -0.46,0.34 -0.38,0.88 0.13,0.94 0.01,3.58 0.13,3.97 0.17,-0.06 0.58,-0.49 0.75,-0.67 0.29,-0.3 0.34,-0.41 0.7,-0.78 0.17,-0.17 0.35,-0.29 0.51,-0.47l0.59 -0.6c0.09,-0.08 0.27,-0.19 0.4,-0.34 0.38,-0.45 0.64,-0.58 0.98,-0.89l0.04 -0.04z"/>
   <path class="fil0" d="M21.87 26.86c0.2,0.11 0.61,0.51 0.78,0.61 0.25,0.16 0.74,0.7 0.87,0.98 0.06,0.15 -0.04,0.55 0.17,0.41 0.03,-0.02 0.04,-0.04 0.04,-0.05 0.06,-0.05 0.03,-0.02 0.05,-0.04 0.01,0 0.08,-0.02 0.11,-0.04l0.51 -0.51c0.17,-0.18 0.5,-0.7 0.74,-0.84 0.02,-0.08 0.47,-0.64 0.54,-0.72 0.24,-0.25 0.39,-0.47 0.54,-0.78 0.3,-0.65 0.32,-1.45 0.09,-2.18 -0.23,-0.7 -0.64,-0.89 -0.84,-1.1l-0.67 -0.61c-0.14,-0.12 -0.21,-0.19 -0.34,-0.32 -0.11,-0.1 -0.25,-0.17 -0.38,-0.27l-0.52 -0.43c-0.06,-0.09 -0.05,-0.15 -0.16,-0.16 -0.23,-0.02 -0.27,0.18 -0.35,0.3l-1.54 1.7c-0.5,0.52 -0.84,1.65 -0.64,2.49 0.22,0.94 0.96,1.41 1,1.56z"/>
   <path class="fil0" d="M28.97 26.99c-0.1,-0.34 0.42,-0.47 0.47,-0.15 0.07,0.42 -0.4,0.4 -0.47,0.15zm-2.74 -0.34c-0.03,0.08 -1.07,1.14 -1.23,1.32l-1.45 1.61c-0.07,0.12 -0.13,0.18 -0.22,0.28 -0.14,0.16 -0.31,0.4 -0.49,0.53 -0.21,0.15 -0.41,0.37 -0.2,0.61l0.05 0.05c0.1,0.01 0.38,0.18 0.55,0.23 0.29,0.1 0.39,0.11 0.72,0.11 0.58,0 0.96,0.02 1.44,-0.22 0.31,-0.16 0.8,-0.44 1.03,-0.65 0.18,-0.17 0.24,-0.17 0.45,-0.38l0.6 -0.62c0.07,-0.08 0.15,-0.1 0.23,-0.18l0.86 -0.81c0.12,-0.08 0.4,-0.23 0.54,-0.29 0.42,-0.21 0.76,-0.33 1.29,-0.38 0.27,-0.03 0.51,-0.01 0.76,0.05 0.2,0.04 0.48,0.2 0.66,0.19 -0.01,-0.24 -0.27,-0.49 -0.45,-0.66 -0.19,-0.2 -0.33,-0.36 -0.55,-0.56 -0.46,-0.42 -0.8,-0.54 -1.4,-0.83 -0.73,-0.34 -2.3,-0.59 -2.94,0.3l-0.25 0.3z"/>
   <path class="fil1" d="M11.82 26.53c-0.11,-0.02 -0.06,-0.09 -0.06,-0.19 0,-0.17 -0.05,-0.17 -0.09,-0.24 -0.05,-0.1 0,-0.17 -0.04,-0.28 -0.08,-0.19 -0.05,0.09 -0.14,-0.34 -0.02,-0.11 -0.02,-0.05 -0.05,-0.13 -0.05,-0.11 -0.02,-0.15 -0.06,-0.27l-0.11 -0.39c-0.04,-0.19 -0.07,-0.08 -0.1,-0.23 -0.01,-0.05 0,-0.1 -0.01,-0.17 -0.02,-0.16 -0.06,-0.12 -0.1,-0.22 -0.01,-0.04 -0.01,-0.08 -0.03,-0.12 -0.05,-0.15 0,-0.02 -0.06,-0.12 -0.07,-0.11 -0.05,-0.16 -0.09,-0.26l-0.11 -0.23c-0.05,-0.05 -0.01,0.02 -0.07,-0.07 -0.02,-0.03 -0.04,-0.08 -0.06,-0.12 -0.1,-0.18 -0.06,-0.13 -0.15,-0.18 -0.1,-0.06 -0.13,-0.05 -0.14,-0.2l-0.29 -0.18c-0.1,-0.06 -0.06,-0.06 -0.2,-0.06l-0.32 -0.05c-0.11,-0.02 -0.12,0.02 -0.21,0.08 0.04,0.11 0.06,0.06 0.08,0.18 0.01,0.09 -0.01,0.13 0.02,0.21 0.06,0.14 0.06,-0.06 0.07,0.2 0.01,0.13 -0.02,0.1 0.04,0.2 0.2,0.34 0.06,0.16 0.14,0.37 0.13,0.33 0.01,0.23 0.08,0.42 0.02,0.06 0.07,0.11 0.09,0.18 0.02,0.09 0,0.14 0.02,0.22 0.03,0.13 0.05,0.04 0.08,0.19 0.01,0.1 -0.02,0.11 0.02,0.21 0.09,0.2 0.04,-0.11 0.13,0.39 0.04,0.25 0.02,-0.05 0.1,0.37 0.03,0.19 0.11,0.12 0.14,0.37 0.02,0.21 0.02,0.05 0.1,0.4 0.04,0.18 0.11,0.19 0.13,0.37 0.03,0.28 0.11,0.17 0.12,0.39 0.01,0.04 0,0.1 0.01,0.14 0.01,0.07 0,0.03 0.04,0.08 0.08,0.13 0.14,0.45 0.16,0.58 0.02,0.12 0.02,0.1 0.07,0.2 0.03,0.06 0.04,0.12 0.06,0.18 0.1,0.2 0.1,0.01 0.11,0.36 0.13,0.16 0.07,-0.03 0.12,0.21 0.05,0.2 0.04,0.03 0.1,0.2 0.02,0.06 0.01,0.09 0.03,0.15 0.03,0.1 0.02,0.03 0.06,0.09 0.07,0.09 0.03,0.09 0.06,0.18 0.05,0.15 0.11,0.06 0.11,0.23 0.01,0.21 -0.01,0.07 0.08,0.2 0.08,0.13 -0.02,0.05 0.08,0.25 0.11,0.23 -0.07,0.15 0.22,0.4l0.19 0.19c0.13,0.13 0.36,0.24 0.58,0.44 0.15,0.15 0.13,0.02 0.28,0.2 0.2,0.23 0.27,-0.03 0.14,-0.26l-0.18 -0.66c-0.03,-0.15 -0.08,-0.06 -0.11,-0.27 -0.03,-0.25 -0.07,-0.16 -0.11,-0.31 -0.02,-0.07 0,-0.12 -0.01,-0.2 -0.02,-0.18 -0.01,-0.05 -0.06,-0.15 -0.05,-0.1 -0.02,-0.07 -0.04,-0.17 -0.01,-0.12 0.01,-0.05 -0.05,-0.15 -0.11,-0.17 -0.02,-0.13 -0.07,-0.32 -0.04,-0.15 -0.09,-0.05 -0.11,-0.3 -0.02,-0.26 -0.08,-0.17 -0.11,-0.31 -0.02,-0.08 0,-0.11 -0.02,-0.19 -0.03,-0.1 -0.05,-0.07 -0.08,-0.13 -0.05,-0.09 -0.01,-0.21 -0.06,-0.33 -0.05,-0.12 -0.04,-0.05 -0.08,-0.12 -0.07,-0.12 0,0.02 -0.02,-0.14 -0.01,-0.15 -0.08,-0.11 -0.11,-0.3 0,-0.07 0,-0.13 -0.02,-0.18 -0.04,-0.09 -0.04,-0.05 -0.07,-0.14 -0.02,-0.06 -0.05,-0.29 -0.06,-0.35z"/>
   <path class="fil1" d="M38.19 26.53c-0.03,0.3 -0.12,0.4 -0.15,0.67 -0.03,0.19 -0.1,0.15 -0.11,0.3 -0.02,0.16 0.05,0.02 -0.02,0.14 -0.03,0.07 -0.03,0 -0.08,0.12 -0.05,0.12 -0.01,0.24 -0.06,0.33 -0.03,0.06 -0.05,0.03 -0.08,0.13 -0.02,0.08 0,0.11 -0.02,0.19 -0.03,0.14 -0.09,0.05 -0.11,0.31 -0.02,0.25 -0.07,0.15 -0.11,0.3 -0.05,0.18 0.04,0.15 -0.07,0.32 -0.12,0.19 0,0.14 -0.09,0.32 -0.05,0.1 -0.04,-0.03 -0.06,0.15 -0.04,0.5 -0.06,0.09 -0.12,0.51 -0.03,0.2 -0.08,0.14 -0.11,0.27l-0.18 0.66c-0.13,0.23 -0.06,0.49 0.14,0.26 0.02,-0.03 0.04,-0.05 0.08,-0.08 0.12,-0.07 0.08,0.01 0.21,-0.12 0.22,-0.21 0.44,-0.31 0.57,-0.44 0.01,-0.01 0.03,-0.03 0.04,-0.04 0.11,-0.12 0.28,-0.25 0.31,-0.32l0.1 -0.34c0.09,-0.37 0.11,0 0.12,-0.34 0,-0.2 0.07,-0.04 0.12,-0.28l0.05 -0.13c0.13,-0.18 0.04,-0.09 0.09,-0.24 0.05,-0.16 0.05,0 0.1,-0.2 0.05,-0.24 -0.01,-0.06 0.12,-0.21 0.03,-0.08 -0.05,-0.14 0.06,-0.29 0.15,-0.21 0.18,-0.5 0.22,-0.65l0.1 -0.34c0,-0.01 0,-0.01 0.01,-0.02l0.05 -0.1c0.01,-0.04 0,-0.1 0.01,-0.14 0.01,-0.23 0.09,-0.11 0.12,-0.36 0.02,-0.23 0.08,-0.18 0.13,-0.37 0.01,-0.08 0.01,-0.15 0.03,-0.21 0.05,-0.14 0.05,-0.01 0.07,-0.19 0.02,-0.13 -0.01,-0.1 0.05,-0.2 0.19,-0.35 0.05,-0.19 0.12,-0.38 0.04,-0.1 0.04,-0.01 0.07,-0.17 0.01,-0.06 0.02,-0.14 0.03,-0.21 0.03,-0.17 0.02,-0.06 0.09,-0.18 0.04,-0.09 0.02,-0.1 0.03,-0.2 0.02,-0.19 0.04,-0.07 0.07,-0.19 0.07,-0.21 -0.06,0 0.11,-0.41 0.02,-0.05 0.06,-0.56 0.22,-0.79 0.06,-0.1 0.04,-0.04 0.05,-0.19 0.01,-0.25 0.01,-0.09 0.07,-0.23 0.07,-0.16 -0.06,-0.17 0.1,-0.36 -0.05,-0.06 -0.03,-0.03 -0.06,-0.1 -0.17,-0.03 -0.15,0.02 -0.29,0.03 -0.23,0.03 -0.18,-0.05 -0.38,0.07l-0.23 0.16c-0.13,0.13 -0.01,0.11 -0.2,0.22 -0.11,0.07 -0.03,-0.01 -0.1,0.11 -0.2,0.33 -0.21,0.25 -0.3,0.53 -0.11,0.34 -0.06,0.14 -0.12,0.29 -0.03,0.06 -0.03,0.11 -0.05,0.17 -0.04,0.11 -0.09,0.09 -0.11,0.27 -0.02,0.31 -0.04,0.12 -0.09,0.33 -0.04,0.12 -0.03,0.2 -0.09,0.33 -0.06,0.14 -0.04,0.22 -0.08,0.33 -0.12,0.32 -0.04,0.19 -0.09,0.33 -0.05,0.14 -0.11,0.07 -0.13,0.29 -0.02,0.29 -0.06,0.09 -0.1,0.31 -0.04,0.19 0.07,0.21 -0.07,0.27z"/>
   <path class="fil0" d="M21.51 27.83c-0.07,0.08 -0.19,0.13 -0.28,0.23 -0.52,0.54 -0.45,1.43 0.2,1.85 0.13,0.08 0.22,0.14 0.39,0.18 0.16,0.03 0.38,-0.01 0.52,0.03 0.01,-0.01 0.02,-0.02 0.03,-0.01 0,0 0.01,-0.01 0.02,-0.02 0.32,-0.15 0.45,-0.16 0.72,-0.54 0.65,-0.91 -0.33,-2.33 -1.6,-1.72z"/>
   <path class="fil1" d="M34.92 32.42c-0.01,0.14 -0.07,0.25 0,0.36 0.13,0 0.05,0.01 0.13,-0.06 0.18,-0.18 0.14,-0.12 0.27,-0.18l0.45 -0.23c0.1,-0.05 0.03,-0.04 0.12,-0.09 0.1,-0.05 0.06,0.01 0.15,-0.07 0.07,-0.13 0,-0.16 0.09,-0.31 0.09,-0.15 0.18,-0.75 0.21,-0.81 0.14,-0.31 0.04,-0.24 0.14,-0.45 0.08,-0.15 0.04,-0.2 0.08,-0.34 0.05,-0.16 0.06,0.05 0.08,-0.31 0.02,-0.28 0.08,0 0.15,-0.44l0.14 -0.48c0.05,-0.08 0.04,-0.02 0.07,-0.11 0.04,-0.1 0.02,-0.1 0.03,-0.19 0.02,-0.25 0,0.02 0.08,-0.21 0.01,0 0.02,-0.09 0.02,-0.09 0.07,-0.45 0.08,-0.02 0.1,-0.5 0.01,-0.18 0,-0.07 0.05,-0.16 0.12,-0.19 0.03,-0.17 0.06,-0.31 0.03,-0.15 0.08,0 0.13,-0.3 0.01,-0.26 0,-0.06 0.09,-0.22 0.07,-0.14 -0.03,-0.4 -0.28,-0.1 -0.08,0.09 -0.03,0.11 -0.13,0.24 -0.11,0.16 -0.1,0.08 -0.15,0.23 -0.05,0.17 -0.04,0.07 -0.1,0.17l-0.04 0.08c-0.06,0.12 -0.04,0.02 -0.1,0.16l-0.35 0.7c-0.1,0.24 -0.04,0.07 -0.1,0.17l-0.05 0.19c-0.07,0.29 -0.2,0.37 -0.19,0.61l-0.03 0.02c-0.15,0.13 -0.06,0.11 -0.13,0.27 -0.03,0.08 -0.03,0.03 -0.06,0.11 -0.06,0.17 0.03,0.09 -0.08,0.25 -0.08,0.11 -0.05,0.1 -0.06,0.28 -0.15,0.07 -0.1,0.02 -0.13,0.21 -0.04,0.23 -0.05,0.1 -0.1,0.26 -0.02,0.04 -0.02,0.11 -0.03,0.15 -0.05,0.16 0.01,0 -0.06,0.12 -0.07,0.12 -0.04,0.18 -0.08,0.3l-0.19 0.56c-0.03,0.27 -0.02,0.08 -0.09,0.26 -0.05,0.15 0.01,0.21 -0.11,0.26z"/>
   <path class="fil1" d="M15.09 32.42c-0.11,-0.02 -0.06,-0.1 -0.1,-0.23 -0.06,-0.2 -0.07,-0.02 -0.1,-0.26 -0.03,-0.22 -0.07,-0.15 -0.15,-0.48l-0.13 -0.43c-0.08,-0.13 -0.04,-0.12 -0.07,-0.23 -0.05,-0.18 -0.06,-0.05 -0.11,-0.25 -0.04,-0.21 0.03,-0.16 -0.13,-0.24 -0.02,-0.4 -0.05,-0.19 -0.11,-0.35 -0.04,-0.13 0.04,-0.05 -0.07,-0.25 -0.07,-0.13 -0.03,-0.17 -0.09,-0.25l-0.09 -0.08c0,-0.15 -0.13,-0.44 -0.18,-0.57 -0.03,-0.09 -0.01,-0.15 -0.05,-0.21 -0.05,-0.1 -0.04,-0.01 -0.1,-0.15l-0.52 -1.02c-0.13,-0.15 -0.04,-0.04 -0.09,-0.18 -0.04,-0.08 -0.15,-0.15 -0.21,-0.29 -0.1,-0.26 -0.18,-0.16 -0.22,-0.28l-0.11 0.03c-0.05,0.33 0.01,0.2 0.06,0.31 0.06,0.14 -0.03,0.16 0.1,0.34 0.13,0.19 -0.01,0.12 0.06,0.33 0.06,0.14 0.05,0.02 0.09,0.15 0.01,0.06 0,0.13 0.01,0.2 0.01,0.19 0,0.07 0.05,0.18 0.07,0.15 0.02,0.21 0.09,0.34 0.08,0.16 0.04,-0.07 0.06,0.16 0.05,0.44 0.08,0.06 0.16,0.51 0.02,0.15 0,0.04 0.05,0.15 0.05,0.12 0.02,0.19 0.06,0.3 0.03,0.06 0.02,0.03 0.03,0.06 0.15,0.24 0.05,0.07 0.1,0.35 0.03,0.21 0.02,-0.09 0.09,0.35 0.04,0.19 0.08,0.13 0.12,0.33 0,0.05 0.02,0.15 0.04,0.2 0.03,0.08 0.04,0.01 0.07,0.14 0.03,0.14 0.09,0.59 0.17,0.72 0.1,0.18 0.03,0.2 0.1,0.33 0.09,0.08 0.06,0.02 0.15,0.07 0.09,0.05 0.02,0.04 0.12,0.09l0.31 0.14c0.09,0.05 0.04,0.05 0.14,0.09 0.43,0.19 0.2,0.24 0.4,0.24 0.07,-0.11 0.01,-0.22 0,-0.36z"/>
   <path class="fil2" d="M42.09 29.28c0.23,-0.01 0.5,-0.12 0.59,0.12 0.05,0.14 0.03,0.58 0.03,0.77l0.1 -0.1c0.06,-0.17 -0.11,-0.53 0.19,-0.48 0.01,0 0.06,0.02 0.07,0.02 0.09,0.06 0.02,-0.01 0.03,0.04l0 -0.43c-0.32,0 -0.23,0.03 -0.49,-0.04 -0.05,-0.02 -0.37,-0.04 -0.44,-0.01 -0.09,0.05 -0.05,0.02 -0.08,0.11z"/>
  </g>
 </g>
</svg>
